# xmcd
#
# Track frame offsets: 
#        150
#        18807
#        38812
#        58885
#        81980
#        102842
#        125760
#        144737
#        165562
#        190702
#
# Disc length: 2824 seconds
#
# Revision: 11
# Processed by: cddbd v1.5.2PL0 Copyright (c) Steve Scherf et al.
# Submitted via: ExactAudioCopy v1.0b3
#
DISCID=840b060a
DTITLE=Mariah Carey - Emotions
DYEAR=1991
DGENRE=Pop
TTITLE0=Emotions
TTITLE1=And You Don't Remember
TTITLE2=Can't Let Go
TTITLE3=Make It Happen
TTITLE4=If It's Over
TTITLE5=You're So Cold
TTITLE6=So Blessed
TTITLE7=To Be Around You
TTITLE8=Till The End Of Time
TTITLE9=The Wind
EXTD=
EXTT0=
EXTT1=
EXTT2=
EXTT3=
EXTT4=
EXTT5=
EXTT6=
EXTT7=
EXTT8=
EXTT9=
PLAYORDER=
